<?xml version="1.0" standalone="no"?><!DOCTYPE svg PUBLIC "-//W3C//DTD SVG 1.1//EN" "http://www.w3.org/Graphics/SVG/1.1/DTD/svg11.dtd"><svg t="1657693336159" class="icon" viewBox="0 0 1024 1024" version="1.1" xmlns="http://www.w3.org/2000/svg" p-id="12311" xmlns:xlink="http://www.w3.org/1999/xlink" width="64" height="64"><defs><style type="text/css">@font-face { font-family: feedback-iconfont; src: url("//at.alicdn.com/t/font_1031158_u69w8yhxdu.woff2?t=1630033759944") format("woff2"), url("//at.alicdn.com/t/font_1031158_u69w8yhxdu.woff?t=1630033759944") format("woff"), url("//at.alicdn.com/t/font_1031158_u69w8yhxdu.ttf?t=1630033759944") format("truetype"); }
</style></defs><path d="M899.7 232.2h-106v-85.5c0-38.9-19.8-79.2-58.7-79.2H311.3c-38.9 0-81.9 40.3-81.9 79.2v85.4h-82.9c-38.9 0-81.8 40.4-81.8 79.4v258.9c0 38.9 42.8 61.5 81.8 61.5h82.8v263.9c0 39 43 61.2 81.9 61.2h423.7c38.9 0 58.7-22.2 58.7-61.2v-264h106.1c39 0 59.6-22.5 59.6-61.5V311.5c0-38.9-20.6-79.3-59.6-79.3m-621-85.3c0-12.8 21.7-32.8 34.6-32.8h419.4c12.9 0 11.6 20 11.6 32.8v84.6H278.7v-84.6m465.6 738.2c0 12.9-10.1 23.9-23 23.9H301.9c-12.9 0-23.2-11.1-23.2-23.9V539.6c0-12.9 10.3-23.3 23.2-23.3h419.5c12.9 0 23 10.4 23 23.3v345.5m162.9-316c0 12.8 1.4 14.3-11.4 14.3h-105v-37.6c0-38.6-19.6-78.8-58.2-78.8H313.3c-38.6 0-81.1 40.2-81.1 78.8v37.6h-82c-12.9 0-34.4-1.5-34.4-14.3V312.7c0-12.8 21.5-32 34.4-32h745.7c12.8 0 11.4 19.1 11.4 32v256.4m-228.6 49.5H349.2c-6.2-0.1-12.2 2.2-16.6 6.6-4.4 4.3-6.9 10.2-6.9 16.4 0 13.1 10.5 23 23.5 23h329.6c13 0 23.5-10 23.5-23 0-6.2-2.5-12.1-6.9-16.4-4.5-4.3-10.5-6.7-16.7-6.6m0 136.1H349.2c-8.4 0-16.1 4.5-20.3 11.7-4.2 7.3-4.2 16.2 0 23.5s11.9 11.7 20.3 11.7h329.6c8.4 0 16.1-4.5 20.3-11.7 4.2-7.3 4.2-16.2 0-23.5-4.2-7.3-12-11.7-20.4-11.7m108.1-417.1c0 19.1 15.5 34.6 34.6 34.6s34.6-15.5 34.6-34.6-15.5-34.6-34.6-34.6-34.6 15.5-34.6 34.6" p-id="12312" data-spm-anchor-id="a313x.7781069.0.i2" class="selected" fill="#2c2c2c"></path></svg>